<svg width="70" height="70" viewBox="0 0 70 70" fill="none" xmlns="http://www.w3.org/2000/svg">
<path d="M70 35C70 54.33 54.33 70 35 70C15.67 70 0 54.33 0 35C0 15.67 15.67 0 35 0C54.33 0 70 15.67 70 35Z" fill="#959288"/>
<path d="M30.5 0.286602C47.7045 2.49486 61 17.1948 61 35C61 52.8052 47.7045 67.5051 30.5 69.7134C31.9733 69.9025 33.4753 70 35 70C54.33 70 70 54.33 70 35C70 15.67 54.33 0 35 0C33.4753 0 31.9733 0.0974989 30.5 0.286602Z" fill="#717171"/>
<path d="M27 19.5C27 22.5376 24.5376 25 21.5 25C18.4624 25 16 22.5376 16 19.5C16 16.4624 18.4624 14 21.5 14C24.5376 14 27 16.4624 27 19.5Z" fill="#717171"/>
<path d="M26 41C26 44.866 22.866 48 19 48C15.134 48 12 44.866 12 41C12 37.134 15.134 34 19 34C22.866 34 26 37.134 26 41Z" fill="#717171"/>
<path d="M42 26C42 27.6569 40.6569 29 39 29C37.3431 29 36 27.6569 36 26C36 24.3431 37.3431 23 39 23C40.6569 23 42 24.3431 42 26Z" fill="#717171"/>
<path d="M53 48C53 50.7614 50.7614 53 48 53C45.2386 53 43 50.7614 43 48C43 45.2386 45.2386 43 48 43C50.7614 43 53 45.2386 53 48Z" fill="#717171"/>
</svg>
